IntermediateWide.ufo
<glyph name="comma" format="1">
  <advance width="303.05726225"/>
  <unicode hex="002C"/>
  <outline>
    <contour>
      <point x="221.13282725" y="0.0" type="line"/>
      <point x="221.13282725" y="270.76742" type="line"/>
      <point x="82.28984224999999" y="270.76742" type="line"/>
      <point x="82.28984224999999" y="0.0" type="line"/>
      <point x="144.1157015" y="-13.076742" type="line"/>
      <point x="135.01947975000002" y="12.0" type="line"/>
      <point x="113.01947975" y="-124.7296375" type="line"/>
      <point x="163.09504475" y="-126.7296375" type="line"/>
    </contour>
  </outline>
</glyph>
<glyph name="period" format="1">
  <advance width="302.69185500000003"/>
  <unicode hex="002E"/>
  <outline>
    <contour>
      <point x="81.92443499999999" y="0.0" type="line"/>
      <point x="220.76742000000002" y="0.0" type="line"/>
      <point x="220.76742000000002" y="270.76742" type="line"/>
      <point x="81.92443499999999" y="270.76742" type="line"/>
    </contour>
  </outline>
</glyph>
<glyph name="A" format="1">
  <advance width="1246.1511300000002"/>
  <unicode hex="0041"/>
  <outline>
    <contour>
      <point x="27" y="0" type="line"/>
      <point x="284" y="0" type="line"/>
      <point x="656" y="763" type="line"/>
      <point x="433" y="763" type="line"/>
    </contour>
    <contour>
      <point x="215" y="158" type="line"/>
      <point x="938" y="158" type="line"/>
      <point x="938" y="309" type="line"/>
      <point x="215" y="309" type="line"/>
    </contour>
    <contour>
      <point x="911" y="0" type="line"/>
      <point x="1219" y="0" type="line"/>
      <point x="813" y="763" type="line"/>
      <point x="520" y="763" type="line"/>
    </contour>
    <contour>
      <point x="465" y="585" type="line"/>
      <point x="750" y="585" type="line"/>
      <point x="750" y="763" type="line"/>
      <point x="465" y="763" type="line"/>
    </contour>
  </outline>
</glyph>
<glyph name="B" format="1">
  <advance width="1238.9769892499999"/>
  <unicode hex="0042"/>
  <outline>
    <contour>
      <point x="81.92443499999999" y="0.0" type="line"/>
      <point x="363.06968" y="0.0" type="line"/>
      <point x="363.06968" y="763.459275" type="line"/>
      <point x="81.92443499999999" y="763.459275" type="line"/>
    </contour>
    <contour>
      <point x="337" y="326" type="line"/>
      <point x="826" y="326" type="line" smooth="yes"/>
      <point x="888.0" y="326"/>
      <point x="929.0" y="299.3974358974359"/>
      <point x="929" y="243" type="curve" smooth="yes"/>
      <point x="929.0" y="191.28114270197293"/>
      <point x="887.94626875" y="164.1877355"/>
      <point x="826.0596162500001" y="164.1877355" type="curve" smooth="yes"/>
      <point x="336.72375250000005" y="164.1877355" type="line"/>
      <point x="336.72375250000005" y="0.0" type="line"/>
      <point x="924.5749765" y="0.0" type="line" smooth="yes"/>
      <point x="1144.86128775" y="0.0"/>
      <point x="1211.66884425" y="89.98052025"/>
      <point x="1211.66884425" y="212.82585925" type="curve" smooth="yes"/>
      <point x="1211.66884425" y="325.67119825"/>
      <point x="1145.8040255" y="391.4214925"/>
      <point x="1041.20721525" y="408.05608525" type="curve"/>
      <point x="1014.86128775" y="365.306968" type="line"/>
      <point x="1098.073211" y="384.32644775"/>
      <point x="1170.70662675" y="442.17296375"/>
      <point x="1170.70662675" y="546.1912665" type="curve" smooth="yes"/>
      <point x="1170.70662675" y="677.01712575"/>
      <point x="1091.20721525" y="763.459275"/>
      <point x="882.97816625" y="763.459275" type="curve" smooth="yes"/>
      <point x="336.72375250000005" y="763.459275" type="line"/>
      <point x="336.72375250000005" y="606.8866525" type="line"/>
      <point x="785.0973987499999" y="606.8866525" type="line" smooth="yes"/>
      <point x="846.98405125" y="606.8866525"/>
      <point x="888.0" y="580.6822161143497"/>
      <point x="888" y="529" type="curve" smooth="yes"/>
      <point x="888.0" y="468.2"/>
      <point x="847.0" y="449"/>
      <point x="785" y="449" type="curve" smooth="yes"/>
      <point x="337" y="449" type="line"/>
    </contour>
  </outline>
</glyph>
<glyph name="C" format="1">
  <advance width="1366.3264477500002"/>
  <unicode hex="0043"/>
  <outline>
    <contour>
      <point x="1025.4881707499999" y="330.94038375" type="line"/>
      <point x="1000.71839675" y="218.76506600000002"/>
      <point x="893.67708325" y="170.687147"/>
      <point x="735.076742" y="170.687147" type="curve" smooth="yes"/>
      <point x="638.8842985" y="170.687147" type="line" smooth="yes"/>
      <point x="457.610405" y="170.687147"/>
      <point x="343.376648" y="234.4191385"/>
      <point x="343.376648" y="384.36423025" type="curve" smooth="yes"/>
      <point x="343.376648" y="531.40554375"/>
      <point x="457.610405" y="592.772128"/>
      <point x="638.8842985" y="592.772128" type="curve" smooth="yes"/>
      <point x="735.076742" y="592.772128" type="line" smooth="yes"/>
      <point x="892.311676" y="592.772128"/>
      <point x="998.9875822500001" y="547.05961625"/>
      <point x="1025.1227635" y="439.8842985" type="curve"/>
      <point x="1310.71015775" y="470.537194" type="line"/>
      <point x="1267.97934325" y="675.5749765"/>
      <point x="1066.97934325" y="773.459275"/>
      <point x="768.075565" y="773.459275" type="curve" smooth="yes"/>
      <point x="604.6162899999999" y="773.459275" type="line" smooth="yes"/>
      <point x="266.61629" y="773.459275"/>
      <point x="54.61629" y="648.305791"/>
      <point x="54.61629" y="384.36423025" type="curve" smooth="yes"/>
      <point x="54.61629" y="118.153484"/>
      <point x="266.61629" y="-10.0"/>
      <point x="604.6162899999999" y="-10.0" type="curve" smooth="yes"/>
      <point x="768.075565" y="-10.0" type="line" smooth="yes"/>
      <point x="1068.97934325" y="-10.0"/>
      <point x="1270.613936" y="91.51889125"/>
      <point x="1311.71015775" y="302.1912665" type="curve"/>
    </contour>
  </outline>
</glyph>
<glyph name="D" format="1">
  <advance width="1213.691855"/>
  <unicode hex="0044"/>
  <outline>
    <contour>
      <point x="81.92443499999999" y="0.0" type="line"/>
      <point x="363.06968" y="0.0" type="line"/>
      <point x="363.06968" y="763.459275" type="line"/>
      <point x="81.92443499999999" y="763.459275" type="line"/>
    </contour>
    <contour>
      <point x="324.0318975" y="589.1180555" type="line"/>
      <point x="575.076742" y="589.1180555" type="line" smooth="yes"/>
      <point x="756.71604275" y="589.1180555"/>
      <point x="870.94979975" y="531.40554375"/>
      <point x="870.94979975" y="384.36423025" type="curve" smooth="yes"/>
      <point x="870.94979975" y="234.4191385"/>
      <point x="756.71604275" y="174.34121950000002"/>
      <point x="575.076742" y="174.34121950000002" type="curve" smooth="yes"/>
      <point x="324.0318975" y="174.34121950000002" type="line"/>
      <point x="324.0318975" y="0.0" type="line"/>
      <point x="608.075565" y="0.0" type="line" smooth="yes"/>
      <point x="946.0755650000001" y="0.0"/>
      <point x="1159.075565" y="118.153484"/>
      <point x="1159.075565" y="384.36423025" type="curve" smooth="yes"/>
      <point x="1159.075565" y="648.305791"/>
      <point x="946.0755650000001" y="763.459275"/>
      <point x="608.075565" y="763.459275" type="curve" smooth="yes"/>
      <point x="324.0318975" y="763.459275" type="line"/>
    </contour>
  </outline>
</glyph>
<glyph name="E" format="1">
  <advance width="1169.8052025"/>
  <unicode hex="0045"/>
  <outline>
    <contour>
      <point x="81.92443499999999" y="0.0" type="line"/>
      <point x="363.06968" y="0.0" type="line"/>
      <point x="363.06968" y="763.459275" type="line"/>
      <point x="81.92443499999999" y="763.459275" type="line"/>
    </contour>
    <contour>
      <point x="146.3459275" y="578.9645715" type="line"/>
      <point x="1087.8807675" y="578.9645715" type="line"/>
      <point x="1087.8807675" y="763.459275" type="line"/>
      <point x="146.3459275" y="763.459275" type="line"/>
    </contour>
    <contour>
      <point x="146.3459275" y="0.0" type="line"/>
      <point x="1087.8807675" y="0.0" type="line"/>
      <point x="1087.8807675" y="184.4947035" type="line"/>
      <point x="146.3459275" y="184.4947035" type="line"/>
    </contour>
    <contour>
      <point x="146" y="301" type="line"/>
      <point x="938" y="301" type="line"/>
      <point x="938" y="462" type="line"/>
      <point x="146" y="462" type="line"/>
    </contour>
  </outline>
</glyph>
<glyph name="H" format="1">
  <advance width="1294.226695"/>
  <unicode hex="0048"/>
  <outline>
    <contour>
      <point x="81.92443499999999" y="0.0" type="line"/>
      <point x="363.06968" y="0.0" type="line"/>
      <point x="363.06968" y="763.459275" type="line"/>
      <point x="81.92443499999999" y="763.459275" type="line"/>
    </contour>
    <contour>
      <point x="197.11334750000003" y="293.386064" type="line"/>
      <point x="1097.1133475000001" y="293.386064" type="line"/>
      <point x="1097.1133475000001" y="471.53484000000003" type="line"/>
      <point x="197.11334750000003" y="471.53484000000003" type="line"/>
    </contour>
    <contour>
      <point x="931.157015" y="0.0" type="line"/>
      <point x="1212.30226" y="0.0" type="line"/>
      <point x="1212.30226" y="763.459275" type="line"/>
      <point x="931.157015" y="763.459275" type="line"/>
    </contour>
  </outline>
</glyph>
<glyph name="I" format="1">
  <advance width="987.1133475"/>
  <unicode hex="0049"/>
  <outline>
    <contour>
      <point x="354.8110875" y="0.0" type="line"/>
      <point x="635.9563325" y="0.0" type="line"/>
      <point x="635.9563325" y="763.459275" type="line"/>
      <point x="354.8110875" y="763.459275" type="line"/>
    </contour>
    <contour>
      <point x="81.92443499999999" y="578.9645715" type="line"/>
      <point x="905.1889125" y="578.9645715" type="line"/>
      <point x="905.1889125" y="763.459275" type="line"/>
      <point x="81.92443499999999" y="763.459275" type="line"/>
    </contour>
    <contour>
      <point x="81.92443499999999" y="0.0" type="line"/>
      <point x="905.1889125" y="0.0" type="line"/>
      <point x="905.1889125" y="184.4947035" type="line"/>
      <point x="81.92443499999999" y="184.4947035" type="line"/>
    </contour>
  </outline>
</glyph>
<glyph name="J" format="1">
  <advance width="884.24970575"/>
  <unicode hex="004A"/>
  <outline>
    <contour>
      <point x="246.92443500000002" y="-10.0" type="curve" smooth="yes"/>
      <point x="587.9610405000001" y="-10.0"/>
      <point x="802.3252707500001" y="124.4994115"/>
      <point x="802.3252707500001" y="403.40201275" type="curve" smooth="yes"/>
      <point x="802.3252707500001" y="763.459275" type="line"/>
      <point x="514.1995055" y="763.459275" type="line"/>
      <point x="514.1995055" y="422.43979525" type="line" smooth="yes"/>
      <point x="514.1995055" y="259.16825575"/>
      <point x="411.29337324999995" y="189.7249295"/>
      <point x="247.55902774999998" y="189.7249295" type="curve" smooth="yes"/>
      <point x="213.76977399999998" y="189.7249295"/>
      <point x="164.0389595" y="192.55196575"/>
      <point x="114.231403" y="201.28278025" type="curve"/>
      <point x="81.92443499999999" y="2.4616289999999985" type="line"/>
      <point x="133.1936205" y="-6.269185500000001"/>
      <point x="188.1936205" y="-10.0"/>
    </contour>
  </outline>
</glyph>
<glyph name="K" format="1">
  <advance width="1192.8577567500001"/>
  <unicode hex="004B"/>
  <outline>
    <contour>
      <point x="81.92443499999999" y="0.0" type="line"/>
      <point x="363.06968" y="0.0" type="line"/>
      <point x="363.06968" y="763.459275" type="line"/>
      <point x="81.92443499999999" y="763.459275" type="line"/>
    </contour>
    <contour>
      <point x="254.5726225" y="305.78807675" type="line"/>
      <point x="363.97581225" y="305.78807675" type="line"/>
      <point x="790.540725" y="0.0" type="line"/>
      <point x="1164.81879725" y="0.0" type="line"/>
      <point x="587.1417140000001" y="456.995292" type="line"/>
      <point x="397.379002" y="406.689501" type="line"/>
      <point x="254.5726225" y="406.689501" type="line"/>
    </contour>
    <contour>
      <point x="366.455744" y="384.70898075" type="line"/>
      <point x="515.3365115" y="312.153484" type="line"/>
      <point x="1155.39612775" y="763.459275" type="line"/>
      <point x="825.40554375" y="763.459275" type="line"/>
    </contour>
  </outline>
</glyph>
<glyph name="L" format="1">
  <advance width="1033.4592750000002"/>
  <unicode hex="004C"/>
  <outline>
    <contour>
      <point x="81.92443499999999" y="0.0" type="line"/>
      <point x="363.06968" y="0.0" type="line"/>
      <point x="363.06968" y="763.459275" type="line"/>
      <point x="81.92443499999999" y="763.459275" type="line"/>
    </contour>
    <contour>
      <point x="146.3459275" y="0.0" type="line"/>
      <point x="1006.15113" y="0.0" type="line"/>
      <point x="1006.15113" y="190.840631" type="line"/>
      <point x="146.3459275" y="190.840631" type="line"/>
    </contour>
  </outline>
</glyph>
<glyph name="M" format="1">
  <advance width="1289.2302260000001"/>
  <unicode hex="004D"/>
  <outline>
    <contour>
      <point x="81.92443499999999" y="0.0" type="line"/>
      <point x="299.610405" y="0.0" type="line"/>
      <point x="299.610405" y="763.459275" type="line"/>
      <point x="81.92443499999999" y="763.459275" type="line"/>
    </contour>
    <contour>
      <point x="1207.305791" y="0.0" type="line"/>
      <point x="1207.305791" y="763.459275" type="line"/>
      <point x="989.619821" y="763.459275" type="line"/>
      <point x="989.619821" y="0.0" type="line"/>
    </contour>
    <contour>
      <point x="1071" y="529" type="line"/>
      <point x="989.619821" y="763.459275" type="line"/>
      <point x="620" y="412" type="line"/>
      <point x="669" y="412" type="line"/>
      <point x="299.610405" y="763.459275" type="line"/>
      <point x="218" y="529" type="line"/>
      <point x="595.154661" y="173.73316849999998" type="line"/>
      <point x="694.075565" y="173.73316849999998" type="line"/>
    </contour>
  </outline>
</glyph>
<glyph name="N" format="1">
  <advance width="1278.36187625"/>
  <unicode hex="004E"/>
  <outline>
    <contour>
      <point x="81.92443499999999" y="0.0" type="line"/>
      <point x="299.610405" y="0.0" type="line"/>
      <point x="299.610405" y="763.459275" type="line"/>
      <point x="81.92443499999999" y="763.459275" type="line"/>
    </contour>
    <contour>
      <point x="218.32409375" y="530.7355225" type="line"/>
      <point x="978.1168785" y="0.0" type="line"/>
      <point x="1060.13400425" y="233.08915975000002" type="line"/>
      <point x="299.610405" y="763.459275" type="line"/>
    </contour>
    <contour>
      <point x="978.7514712499999" y="0.0" type="line"/>
      <point x="1196.4374412500001" y="0.0" type="line"/>
      <point x="1196.4374412500001" y="763.459275" type="line"/>
      <point x="978.7514712499999" y="763.459275" type="line"/>
    </contour>
  </outline>
</glyph>
<glyph name="O" format="1">
  <advance width="1359.075565"/>
  <unicode hex="004F"/>
  <outline>
    <contour>
      <point x="604.6162899999999" y="-10.0" type="curve" smooth="yes"/>
      <point x="753.4592749999999" y="-10.0" type="line" smooth="yes"/>
      <point x="1091.4592750000002" y="-10.0"/>
      <point x="1304.4592750000002" y="118.153484"/>
      <point x="1304.4592750000002" y="384.36423025" type="curve" smooth="yes"/>
      <point x="1304.4592750000002" y="648.305791"/>
      <point x="1091.4592750000002" y="773.459275"/>
      <point x="753.4592749999999" y="773.459275" type="curve" smooth="yes"/>
      <point x="604.6162899999999" y="773.459275" type="line" smooth="yes"/>
      <point x="266.61629" y="773.459275"/>
      <point x="54.61629" y="648.305791"/>
      <point x="54.61629" y="384.36423025" type="curve" smooth="yes"/>
      <point x="54.61629" y="118.153484"/>
      <point x="266.61629" y="-10.0"/>
    </contour>
    <contour>
      <point x="638.8842985" y="170.687147" type="line" smooth="yes"/>
      <point x="457.610405" y="170.687147"/>
      <point x="343.376648" y="234.4191385"/>
      <point x="343.376648" y="384.36423025" type="curve" smooth="yes"/>
      <point x="343.376648" y="531.40554375"/>
      <point x="457.610405" y="592.772128"/>
      <point x="638.8842985" y="592.772128" type="curve" smooth="yes"/>
      <point x="720.460452" y="592.772128" type="line" smooth="yes"/>
      <point x="902.09975275" y="592.772128"/>
      <point x="1016.33350975" y="531.40554375"/>
      <point x="1016.33350975" y="384.36423025" type="curve" smooth="yes"/>
      <point x="1016.33350975" y="234.4191385"/>
      <point x="902.09975275" y="170.687147"/>
      <point x="720.460452" y="170.687147" type="curve" smooth="yes"/>
    </contour>
  </outline>
</glyph>
<glyph name="P" format="1">
  <advance width="1175.24735175"/>
  <unicode hex="0050"/>
  <outline>
    <contour>
      <point x="81.92443499999999" y="0.0" type="line"/>
      <point x="363.06968" y="0.0" type="line"/>
      <point x="363.06968" y="763.459275" type="line"/>
      <point x="81.92443499999999" y="763.459275" type="line"/>
    </contour>
    <contour>
      <point x="247.88076750000002" y="566.71486575" type="line"/>
      <point x="691.55549675" y="566.71486575" type="line" smooth="yes"/>
      <point x="842.98405125" y="566.71486575"/>
      <point x="892.5430789999999" y="528.0401365"/>
      <point x="892.5430789999999" y="446.59563325" type="curve" smooth="yes"/>
      <point x="892.5430789999999" y="360.70898075"/>
      <point x="842.98405125" y="324.93802975000006"/>
      <point x="691.55549675" y="324.93802975000006" type="curve" smooth="yes"/>
      <point x="247.88076750000002" y="324.93802975000006" type="line"/>
      <point x="247.88076750000002" y="127.55902775" type="line"/>
      <point x="666.32527075" y="127.55902775" type="line" smooth="yes"/>
      <point x="1042.59445625" y="127.55902775"/>
      <point x="1147.93920675" y="244.11687849999998"/>
      <point x="1147.93920675" y="446.59563325" type="curve" smooth="yes"/>
      <point x="1147.93920675" y="647.90142425"/>
      <point x="1042.59445625" y="764.09386775"/>
      <point x="667.59445625" y="764.09386775" type="curve" smooth="yes"/>
      <point x="247.88076750000002" y="764.09386775" type="line"/>
    </contour>
  </outline>
</glyph>
<glyph name="Q" format="1">
  <advance width="1359.075565"/>
  <unicode hex="0051"/>
  <outline>
    <contour>
      <point x="614.080273" y="-130.0" type="line"/>
      <point x="896.687147" y="-130.0" type="line"/>
      <point x="771.6688442499999" y="112.63106175" type="line"/>
      <point x="493.44685725" y="106.05373125000001" type="line"/>
    </contour>
    <component base="O"/>
  </outline>
</glyph>
<glyph name="R" format="1">
  <advance width="1175.2473517499998"/>
  <unicode hex="0052"/>
  <outline>
    <contour>
      <point x="830.389595" y="0.0" type="line"/>
      <point x="1132.40083575" y="0.0" type="line"/>
      <point x="1031.0342515" y="145.59445625" type="line" smooth="yes"/>
      <point x="976.39848175" y="216.20956925000002"/>
      <point x="920.78336875" y="258.70898075"/>
      <point x="844.70780375" y="257.97816625" type="curve"/>
      <point x="651.2910192500001" y="257.97816625" type="line"/>
    </contour>
    <contour>
      <point x="81.92443499999999" y="0.0" type="line"/>
      <point x="363.06968" y="0.0" type="line"/>
      <point x="363.06968" y="763.459275" type="line"/>
      <point x="81.92443499999999" y="763.459275" type="line"/>
    </contour>
    <contour>
      <point x="247.88076750000002" y="566.71486575" type="line"/>
      <point x="695.20956925" y="566.71486575" type="line" smooth="yes"/>
      <point x="842.98405125" y="566.71486575"/>
      <point x="891.0" y="529.6169614987853"/>
      <point x="891" y="452" type="curve" smooth="yes"/>
      <point x="891.0" y="369.4732142857143"/>
      <point x="843.0" y="335"/>
      <point x="695" y="335" type="curve" smooth="yes"/>
      <point x="248" y="335" type="line"/>
      <point x="247.88076750000002" y="165.63459275" type="line"/>
      <point x="666.32527075" y="165.63459275" type="line" smooth="yes"/>
      <point x="1042.59445625" y="165.63459275"/>
      <point x="1147.93920675" y="275.846516"/>
      <point x="1147.93920675" y="465.63341575" type="curve" smooth="yes"/>
      <point x="1147.93920675" y="654.24735175"/>
      <point x="1042.59445625" y="764.09386775"/>
      <point x="667.5944562499999" y="764.09386775" type="curve" smooth="yes"/>
      <point x="247.88076750000002" y="764.09386775" type="line"/>
    </contour>
  </outline>
</glyph>
<glyph name="S" format="1">
  <advance width="1249.59563325"/>
  <unicode hex="0053"/>
  <outline>
    <contour>
      <point x="1194.97934325" y="242.3447505" type="curve" smooth="yes"/>
      <point x="1194.97934325" y="418.89147178031806"/>
      <point x="1068.0" y="472"/>
      <point x="825" y="472" type="curve" smooth="yes"/>
      <point x="504" y="472" type="line" smooth="yes"/>
      <point x="372.0" y="472"/>
      <point x="327.0" y="483.0"/>
      <point x="327" y="527" type="curve" smooth="yes"/>
      <point x="327.0" y="573.5342159733457"/>
      <point x="389.4958805" y="589.32997875"/>
      <point x="569.462806" y="589.32997875" type="curve" smooth="yes"/>
      <point x="703.05490825" y="589.32997875" type="line" smooth="yes"/>
      <point x="856.6711982500001" y="589.32997875"/>
      <point x="985.90260125" y="574.772128"/>
      <point x="1122.51889125" y="547.05961625" type="curve"/>
      <point x="1146.3069679999999" y="727.47757775" type="line"/>
      <point x="1012.6711982500001" y="759.536017"/>
      <point x="835.4994115" y="773.82468225"/>
      <point x="676.4020127499999" y="773.82468225" type="curve" smooth="yes"/>
      <point x="534.56020475" y="773.82468225" type="line" smooth="yes"/>
      <point x="195.8099105" y="773.82468225"/>
      <point x="94.1168785" y="667.230226"/>
      <point x="94.1168785" y="525.78807675" type="curve" smooth="yes"/>
      <point x="94.1168785" y="350.8737678319369"/>
      <point x="221.0" y="298"/>
      <point x="490" y="298" type="curve" smooth="yes"/>
      <point x="785" y="298" type="line" smooth="yes"/>
      <point x="913.0" y="298"/>
      <point x="962.0" y="284.55555555555554"/>
      <point x="962" y="243" type="curve" smooth="yes"/>
      <point x="962.0" y="194.16663416566078"/>
      <point x="897.7733049999999" y="174.86011075000002"/>
      <point x="712.32527075" y="174.86011075000002" type="curve" smooth="yes"/>
      <point x="547.55902775" y="174.86011075000002" type="line" smooth="yes"/>
      <point x="330.83056725" y="174.86011075000002"/>
      <point x="193.80873350000002" y="192.456921"/>
      <point x="81.69303199999999" y="232.97698925000003" type="curve"/>
      <point x="54.61629" y="47.309321999999995" type="line"/>
      <point x="178.63576974999998" y="8.769773999999998"/>
      <point x="396.96339450000005" y="-9.63459275"/>
      <point x="518.3677612500001" y="-9.63459275" type="curve" smooth="yes"/>
      <point x="778.32291675" y="-9.63459275" type="line" smooth="yes"/>
      <point x="1110.4970575" y="-9.63459275"/>
      <point x="1194.97934325" y="92.44097225"/>
    </contour>
  </outline>
</glyph>
<glyph name="T" format="1">
  <advance width="1216.15113"/>
  <unicode hex="0054"/>
  <outline>
    <contour>
      <point x="467.5029425" y="0.0" type="line"/>
      <point x="748.6481875" y="0.0" type="line"/>
      <point x="748.6481875" y="763.459275" type="line"/>
      <point x="467.5029425" y="763.459275" type="line"/>
    </contour>
    <contour>
      <point x="27.308145" y="553.5808615" type="line"/>
      <point x="1188.842985" y="553.5808615" type="line"/>
      <point x="1188.842985" y="763.459275" type="line"/>
      <point x="27.308145" y="763.459275" type="line"/>
    </contour>
  </outline>
</glyph>
<glyph name="U" format="1">
  <advance width="1273.6505415000001"/>
  <unicode hex="0055"/>
  <outline>
    <contour>
      <point x="636.3252707500001" y="-10.0" type="curve" smooth="yes"/>
      <point x="977.36187625" y="-10.0"/>
      <point x="1191.7261065" y="124.4994115"/>
      <point x="1191.7261065" y="403.40201275" type="curve" smooth="yes"/>
      <point x="1191.7261065" y="763.459275" type="line"/>
      <point x="903.60034125" y="763.459275" type="line"/>
      <point x="903.60034125" y="422.43979525" type="line" smooth="yes"/>
      <point x="903.60034125" y="259.16825575"/>
      <point x="800.694209" y="189.7249295"/>
      <point x="636.9598635" y="189.7249295" type="curve" smooth="yes"/>
      <point x="473.59092525" y="189.7249295"/>
      <point x="370.684793" y="259.16825575"/>
      <point x="370.684793" y="422.43979525" type="curve" smooth="yes"/>
      <point x="370.684793" y="763.459275" type="line"/>
      <point x="81.92443499999999" y="763.459275" type="line"/>
      <point x="81.92443499999999" y="403.40201275" type="line" smooth="yes"/>
      <point x="81.92443499999999" y="124.4994115"/>
      <point x="295.28866525" y="-10.0"/>
    </contour>
  </outline>
</glyph>
<glyph name="V" format="1">
  <advance width="1265.1889125"/>
  <unicode hex="0056"/>
  <outline>
    <contour>
      <point x="1237.8807674999998" y="763.459275" type="line"/>
      <point x="1010.1947975" y="763.459275" type="line"/>
      <point x="619.1717867499999" y="0.0" type="line"/>
      <point x="813.3010830000001" y="0.0" type="line"/>
    </contour>
    <contour>
      <point x="343.8371" y="763.459275" type="line"/>
      <point x="27.308145" y="763.459275" type="line"/>
      <point x="447.7343455" y="0.0" type="line"/>
      <point x="749.7444092500001" y="0.0" type="line"/>
    </contour>
    <contour>
      <point x="790.609228" y="178.148776" type="line"/>
      <point x="502.155838" y="178.148776" type="line"/>
      <point x="502.155838" y="0.0" type="line"/>
      <point x="790.609228" y="0.0" type="line"/>
    </contour>
  </outline>
</glyph>
